HIERARCHY
ROOT Pelvis
{
	OFFSET 0.000000 0.941512 0.000000
	CHANNELS 6 Xposition Yposition Zposition Zrotation Yrotation Xrotation 
	JOINT Pelvis_L_Hip
	{
		OFFSET 0.000000 0.000000 0.000000
		CHANNELS 3 Zrotation Yrotation Xrotation
		JOINT L_Hip
		{
			OFFSET 0.062321 -0.080322 -0.016990
			CHANNELS 3 Zrotation Yrotation Xrotation
			JOINT L_Knee
			{
				OFFSET 0.093051 -0.381305 -0.029784
				CHANNELS 3 Zrotation Yrotation Xrotation
				JOINT L_Ankle
				{
					OFFSET -0.010371 -0.431000 -0.033614
					CHANNELS 3 Zrotation Yrotation Xrotation
					End Site #name: L_Foot
					{
						OFFSET 0.069299 -0.038670 0.119418
					}
				}
			}
		}
	}
	JOINT Pelvis_R_Hip
	{
		OFFSET 0.000000 0.000000 0.000000
		CHANNELS 3 Zrotation Yrotation Xrotation
		JOINT R_Hip
		{
			OFFSET -0.055334 -0.094904 -0.002373
			CHANNELS 3 Zrotation Yrotation Xrotation
			JOINT R_Knee
			{
				OFFSET -0.064207 -0.384370 -0.019592
				CHANNELS 3 Zrotation Yrotation Xrotation
				JOINT R_Ankle
				{
					OFFSET 0.025418 -0.419734 -0.065953
					CHANNELS 3 Zrotation Yrotation Xrotation
					End Site #name: R_Foot
					{
						OFFSET -0.057233 -0.039888 0.132134
					}
				}
			}
		}
	}
	JOINT Pelvis_Spine1
	{
		OFFSET 0.000000 0.000000 0.000000
		CHANNELS 3 Zrotation Yrotation Xrotation
		JOINT Spine1
		{
			OFFSET -0.005562 0.124093 -0.043360
			CHANNELS 3 Zrotation Yrotation Xrotation
			JOINT Spine2
			{
				OFFSET 0.012244 0.139499 0.029894
				CHANNELS 3 Zrotation Yrotation Xrotation
				JOINT Spine3
				{
					OFFSET -0.002556 0.056561 0.009225
					CHANNELS 3 Zrotation Yrotation Xrotation
					JOINT Spine3_Neck
					{
						OFFSET 0.000000 0.000000 0.000000
						CHANNELS 3 Zrotation Yrotation Xrotation
						JOINT Neck
						{
							OFFSET -0.005205 0.217920 -0.024551
							CHANNELS 3 Zrotation Yrotation Xrotation
							End Site #name: Head
							{
								OFFSET 0.002365 0.091850 0.046637
							}
						}
					}
					JOINT Spine3_L_Collar
					{
						OFFSET 0.000000 0.000000 0.000000
						CHANNELS 3 Zrotation Yrotation Xrotation
						JOINT L_Collar
						{
							OFFSET 0.072225 0.116603 -0.009480
							CHANNELS 3 Zrotation Yrotation Xrotation
							JOINT L_Shoulder
							{
								OFFSET 0.115937 -0.058643 -0.021018
								CHANNELS 3 Zrotation Yrotation Xrotation
								JOINT L_Elbow
								{
									OFFSET 0.021994 -0.254722 -0.024492
									CHANNELS 3 Zrotation Yrotation Xrotation
									End Site #name: L_Wrist
									{
										OFFSET 0.048810 -0.240214 0.103329
									}
								}
							}
						}
					}
					JOINT Spine3_R_Collar
					{
						OFFSET 0.000000 0.000000 0.000000
						CHANNELS 3 Zrotation Yrotation Xrotation
						JOINT R_Collar
						{
							OFFSET -0.073372 0.120704 -0.024611
							CHANNELS 3 Zrotation Yrotation Xrotation
							JOINT R_Shoulder
							{
								OFFSET -0.108089 -0.054969 -0.020504
								CHANNELS 3 Zrotation Yrotation Xrotation
								JOINT R_Elbow
								{
									OFFSET -0.033684 -0.260739 0.009889
									CHANNELS 3 Zrotation Yrotation Xrotation
									End Site #name: R_Wrist
									{
										OFFSET -0.067980 -0.232763 0.118463
									}
								}
							}
						}
					}
				}
			}
		}
	}
}
MOTION
Frames: 9
Frame Time: 0.041667
0.024656 0.883144 -0.044882 4.857095 -3.821114 1.240741 0.000000 0.000000 0.000000 -2.412204 -6.148040 -24.295870 -3.374379 1.092529 40.740875 7.794296 -6.405125 -16.884045 0.000000 0.000000 0.000000 -11.276535 2.555921 -26.066923 -4.482731 5.826320 40.683535 -5.681500 16.541108 -19.045807 0.000000 0.000000 0.000000 13.421273 -6.678044 18.143510 -15.400215 7.902380 26.161290 4.344748 7.960963 -40.190381 0.000000 0.000000 0.000000 -5.293632 2.522858 17.928741 0.000000 0.000000 0.000000 34.719996 -11.531974 -2.426148 -19.576466 3.387945 9.952272 -7.767429 -6.672897 -10.499120 0.000000 0.000000 0.000000 -60.887901 25.085075 -19.202031 1.738765 11.297291 -55.351931 -41.767996 -32.962889 -59.542728 
0.013817 0.881357 -0.042833 1.048803 -4.489181 -1.325528 0.000000 0.000000 0.000000 0.774902 -5.193840 -22.201978 -0.645380 -0.160149 43.493216 7.351459 -6.928032 -16.279543 0.000000 0.000000 0.000000 -7.458890 2.820054 -22.702837 -2.247409 4.585978 40.048306 -5.115351 15.500270 -17.602180 0.000000 0.000000 0.000000 13.151350 -5.877061 15.197651 -6.721942 5.420496 34.469855 -1.443438 -1.406866 -40.221813 0.000000 0.000000 0.000000 -4.813176 2.709709 17.981985 0.000000 0.000000 0.000000 32.208078 -16.842326 -9.199080 -14.469183 4.836708 19.891453 -7.289589 -6.815215 -11.599627 0.000000 0.000000 0.000000 -44.560022 25.146162 -16.216670 17.233605 10.063027 -26.370039 -23.216436 -6.664391 -67.412263 
0.005456 0.882825 -0.034863 -1.419038 -5.507101 -1.978599 0.000000 0.000000 0.000000 3.337958 -4.373218 -19.985612 0.613495 -0.693480 43.368306 8.012298 -7.670894 -17.776451 0.000000 0.000000 0.000000 -6.108969 2.948928 -21.925210 1.435570 2.747417 40.893652 -4.766717 16.054183 -17.046809 0.000000 0.000000 0.000000 10.240363 -4.325607 12.495882 -1.144888 3.006144 37.713490 -2.812036 -5.161022 -40.645718 0.000000 0.000000 0.000000 -5.631045 3.636177 19.943101 0.000000 0.000000 0.000000 28.267069 -17.675524 -10.562348 -11.663162 4.891164 23.460545 -5.577717 -6.414619 -13.393770 0.000000 0.000000 0.000000 -30.445802 14.984229 -5.408876 25.940974 0.292714 6.366712 -14.298708 13.375279 -75.908026 
-0.003420 0.879256 -0.025637 -2.614207 -5.677151 -2.712325 0.000000 0.000000 0.000000 4.843689 -3.889961 -18.381344 1.078386 -0.941589 43.255316 8.754369 -7.959570 -19.169342 0.000000 0.000000 0.000000 -3.818356 3.186931 -21.361849 2.335612 2.439398 42.921866 -5.905262 13.207581 -18.392183 0.000000 0.000000 0.000000 8.062105 -3.563208 12.247518 -1.906423 2.941765 33.105615 0.357030 -4.158695 -37.666312 0.000000 0.000000 0.000000 -4.710865 3.343804 22.419697 0.000000 0.000000 0.000000 29.062460 -14.712112 -8.114663 -14.225773 4.611950 18.728168 -6.907764 -6.736860 -12.078186 0.000000 0.000000 0.000000 -31.385625 2.719607 6.351135 31.800142 -7.809350 25.318480 -18.370495 12.405848 -91.997386 
-0.009144 0.879760 -0.017096 -2.124304 -3.587083 -4.029090 0.000000 0.000000 0.000000 3.763237 -3.735072 -16.845007 3.059930 -2.182018 42.060266 7.567557 -10.548880 -17.688462 0.000000 0.000000 0.000000 -3.630936 2.483468 -16.831195 1.717154 2.185302 39.208575 -6.635538 11.201667 -19.430797 0.000000 0.000000 0.000000 6.524582 -2.606331 8.763672 -1.145585 2.553517 34.727848 -1.326320 -5.427439 -35.354469 0.000000 0.000000 0.000000 -4.342766 2.813162 18.798602 0.000000 0.000000 0.000000 32.466564 -12.229419 -5.608710 -17.160274 3.982701 13.429700 -5.785573 -7.130280 -15.481378 0.000000 0.000000 0.000000 -32.107306 -2.286630 11.167213 41.630788 -7.342350 21.003501 -23.514105 0.507648 -106.921124 
-0.015379 0.897527 -0.011784 -2.588577 -0.400659 -3.030395 0.000000 0.000000 0.000000 4.648066 -3.491443 -15.722374 4.253708 -2.712359 36.023665 5.387859 -14.623704 -15.101639 0.000000 0.000000 0.000000 -2.811681 1.736330 -11.339195 1.264153 1.345558 29.107459 -6.050934 10.673156 -18.467046 0.000000 0.000000 0.000000 3.956499 -1.795036 7.677120 -3.174342 3.073312 32.159841 -0.118345 -2.270848 -38.299644 0.000000 0.000000 0.000000 -3.615120 1.991067 20.834396 0.000000 0.000000 0.000000 29.097522 -11.235390 -4.181316 -16.029783 4.138810 15.100931 -3.054335 -7.468105 -22.098525 0.000000 0.000000 0.000000 -30.169833 4.063979 3.752706 29.765699 1.488111 3.769417 -26.012801 -7.742948 -112.247400 
-0.018305 0.923879 -0.012794 -2.817166 2.371064 -0.430761 0.000000 0.000000 0.000000 5.033709 -3.456982 -15.442940 4.952058 -2.575727 28.748616 2.962598 -15.815173 -11.516678 0.000000 0.000000 0.000000 -0.826092 1.665987 -10.205074 -1.360396 1.802654 22.694369 -4.460722 9.687570 -15.201387 0.000000 0.000000 0.000000 4.070014 -1.988316 8.334999 -11.299096 5.479554 24.190597 1.607264 3.784931 -40.753879 0.000000 0.000000 0.000000 -1.488444 -0.284951 25.949761 0.000000 0.000000 0.000000 26.545124 -9.383632 -1.794639 -11.115323 2.814709 12.801396 -8.483192 -12.269508 -23.992481 0.000000 0.000000 0.000000 -36.817592 16.602328 -8.495801 10.621256 2.424345 -5.566965 -29.336188 -16.457189 -97.076988 
-0.017976 0.935759 -0.021135 -1.737151 3.009373 2.748558 0.000000 0.000000 0.000000 3.679306 -4.295953 -18.948701 4.603781 -2.440637 28.504273 2.953898 -13.589395 -10.736872 0.000000 0.000000 0.000000 -1.053243 2.208814 -13.734222 -3.022026 2.357702 22.321706 -4.567314 8.432723 -15.055207 0.000000 0.000000 0.000000 7.302461 -2.730032 6.700182 -23.495158 8.797520 18.745347 3.501600 9.930024 -40.102505 0.000000 0.000000 0.000000 2.324937 -4.377299 30.315354 0.000000 0.000000 0.000000 27.160468 -8.428139 0.071287 -8.592623 1.237055 5.379798 -12.656741 -15.168738 -23.257507 0.000000 0.000000 0.000000 -58.138482 24.811918 -20.684134 -5.943154 0.598884 -11.232438 -28.823815 -11.766573 -52.554553 
-0.016965 0.930998 -0.032525 -0.668130 0.597577 2.386047 0.000000 0.000000 0.000000 2.428582 -4.621346 -20.092718 3.621737 -2.203194 32.243948 4.654166 -8.995438 -11.986741 0.000000 0.000000 0.000000 -2.241418 2.453614 -15.869270 -4.112300 3.168641 25.010754 -4.698346 11.224200 -15.992831 0.000000 0.000000 0.000000 10.371221 -3.917256 8.515721 -29.498399 10.701665 17.523565 3.590449 11.656289 -36.479643 0.000000 0.000000 0.000000 7.252147 -6.946851 22.531597 0.000000 0.000000 0.000000 31.184362 -9.504846 0.165967 -13.397995 1.354971 3.484792 -5.022138 -12.190713 -31.225652 0.000000 0.000000 0.000000 -81.911765 27.359934 -30.988425 -24.694617 -2.988424 -21.089416 -5.015576 -2.892460 1.728874 
